<?xml version="1.0" standalone="no"?>
<!DOCTYPE svg PUBLIC "-//W3C//DTD SVG 20010904//EN"
 "http://www.w3.org/TR/2001/REC-SVG-20010904/DTD/svg10.dtd">
<svg version="1.0" xmlns="http://www.w3.org/2000/svg"
 width="256.000000pt" height="256.000000pt" viewBox="0 0 256.000000 256.000000"
 preserveAspectRatio="xMidYMid meet">

<g transform="translate(0.000000,256.000000) scale(0.100000,-0.100000)"
fill="#000000" stroke="none">
<path d="M185 2390 c-72 -28 -119 -71 -154 -142 l-31 -61 0 -907 0 -907 31
-61 c35 -70 72 -105 147 -139 l53 -23 1046 0 c954 0 1051 1 1093 17 70 26 125
75 159 145 l31 61 0 907 0 907 -31 61 c-35 72 -83 114 -157 142 -51 19 -80 20
-1095 19 -1004 0 -1044 -1 -1092 -19z m2183 -90 c24 -13 56 -44 72 -69 l30
-44 0 -184 0 -183 -1190 0 -1190 0 0 183 0 184 29 44 c31 46 74 77 125 90 17
4 492 6 1056 6 l1025 -2 43 -25z m102 -1247 l0 -676 -25 -43 c-16 -27 -44 -54
-73 -71 l-47 -28 -1045 0 -1045 0 -43 25 c-24 13 -56 44 -72 69 l-30 44 0 679
0 678 1190 0 1190 0 0 -677z"/>
<path d="M219 2161 c-35 -35 -39 -44 -39 -89 0 -43 5 -57 30 -86 44 -49 90
-63 144 -42 81 31 112 106 76 181 -26 54 -61 75 -126 75 -41 0 -51 -5 -85 -39z
m119 -57 c26 -18 28 -41 5 -66 -31 -35 -73 -16 -73 34 0 15 8 31 18 37 23 14
24 14 50 -5z"/>
<path d="M665 2190 c-42 -17 -68 -58 -73 -113 -4 -49 -1 -57 27 -90 37 -41 88
-61 132 -52 43 10 97 67 105 112 9 46 -23 111 -65 136 -31 18 -92 21 -126 7z
m89 -86 c10 -4 16 -18 16 -35 0 -57 -80 -65 -88 -10 -2 12 -1 29 2 37 6 14 42
19 70 8z"/>
<path d="M1063 2181 c-94 -59 -77 -198 28 -241 93 -39 208 76 169 169 -32 79
-129 115 -197 72z m105 -83 c7 -7 12 -21 12 -33 0 -12 -5 -26 -12 -33 -7 -7
-21 -12 -33 -12 -12 0 -26 5 -33 12 -13 13 -16 60 -5 71 11 11 58 8 71 -5z"/>
<path d="M1331 1472 c-15 -13 -27 -49 -47 -147 -14 -71 -37 -182 -51 -245 -13
-63 -33 -155 -43 -205 -10 -49 -26 -128 -36 -174 -17 -81 -17 -84 1 -97 45
-33 64 -12 85 92 18 89 38 184 86 409 60 284 73 349 68 357 -14 22 -43 27 -63
10z"/>
<path d="M943 1273 c-32 -25 -65 -54 -74 -63 -9 -9 -51 -45 -92 -79 -78 -65
-92 -84 -80 -106 5 -7 71 -66 147 -132 113 -96 145 -118 170 -118 28 0 31 3
31 29 0 25 -17 44 -115 129 -63 55 -115 104 -115 109 0 6 52 54 115 107 120
101 140 132 104 158 -25 19 -27 18 -91 -34z"/>
<path d="M1526 1307 c-36 -26 -16 -57 104 -158 63 -53 115 -101 115 -107 0 -5
-52 -54 -115 -109 -98 -85 -115 -104 -115 -129 0 -24 4 -30 27 -32 23 -3 50
16 150 101 156 133 178 153 178 167 0 13 -33 46 -109 110 -29 25 -61 52 -70
61 -30 30 -132 109 -139 109 -5 0 -16 -6 -26 -13z"/>
</g>
</svg>
